<svg width="100%" height="100%" viewBox="0 0 400 200" xmlns="http://www.w3.org/2000/svg">
  <defs>
    <linearGradient id="skyGradient" x1="0" y1="0" x2="0" y2="1">
      <stop offset="0%" stop-color="#87CEEB" />
      <stop offset="100%" stop-color="#ADD8E6" />
    </linearGradient>
    <linearGradient id="groundGradient" x1="0" y1="0" x2="0" y2="1">
      <stop offset="0%" stop-color="#008000" />
      <stop offset="100%" stop-color="#006400" />
    </linearGradient>
  </defs>

  <!-- Sky Background -->
  <rect x="0" y="0" width="100%" height="50%" fill="url(#skyGradient)" />

  <!-- Ground Background -->
  <rect x="0" y="100" width="100%" height="100" fill="url(#groundGradient)" />

  <!-- Hills -->
  <path d="M 0 150 Q 50 100, 100 150 T 200 150 T 300 150 T 400 150 V 200 H 0 Z" fill="#228B22" />
  <path d="M 0 170 Q 60 120, 120 170 T 240 170 T 360 170 T 500 170 V 200 H 0 Z" fill="#006400" />

  <!-- Trees -->
  <circle cx="60" cy="130" r="15" fill="#006400" />
  <rect x="57" y="135" width="6" height="15" fill="#8B4513" />
  
  <circle cx="140" cy="140" r="20" fill="#006400" />
  <rect x="137" y="145" width="6" height="20" fill="#8B4513" />

  <circle cx="300" cy="130" r="15" fill="#006400" />
  <rect x="297" y="135" width="6" height="15" fill="#8B4513" />

  <!-- More trees as needed -->
</svg>
